<?xml version="1.0" standalone="no"?>
<!DOCTYPE svg PUBLIC "-//W3C//DTD SVG 20010904//EN"
 "http://www.w3.org/TR/2001/REC-SVG-20010904/DTD/svg10.dtd">
<svg version="1.0" xmlns="http://www.w3.org/2000/svg"
 width="200.000000pt" height="200.000000pt" viewBox="0 0 200.000000 200.000000"
 preserveAspectRatio="xMidYMid meet">

<g transform="translate(0.000000,200.000000) scale(0.100000,-0.100000)"
fill="#164a84" stroke="none">
<path d="M0 1000 l0 -1000 1000 0 1000 0 0 1000 0 1000 -1000 0 -1000 0 0
-1000z m1393 736 c44 -18 95 -78 103 -121 11 -60 -4 -106 -50 -151 -68 -69
-155 -72 -226 -8 -43 39 -65 91 -56 130 5 19 12 25 29 22 12 -2 23 -11 25 -23
13 -72 74 -123 132 -110 37 8 77 48 85 85 9 41 -19 95 -60 114 -47 22 -697 24
-750 2 -43 -18 -69 -67 -61 -114 18 -116 181 -117 205 -1 9 42 37 61 55 36 17
-22 6 -79 -22 -116 -27 -37 -91 -71 -132 -71 -55 0 -121 38 -147 85 -48 85
-17 190 67 233 43 22 51 22 407 22 283 0 371 -3 396 -14z m-375 -188 c9 -9 12
-86 12 -284 0 -228 -2 -274 -15 -284 -8 -7 -22 -10 -30 -6 -13 5 -15 45 -15
289 0 156 3 287 7 290 10 11 28 8 41 -5z m-123 -70 c3 -13 4 -129 3 -258 l-3
-235 -25 0 -25 0 -3 245 c-1 134 0 250 3 257 8 22 44 15 50 -9z m254 8 c8 -9
11 -86 9 -257 l-3 -244 -25 0 -25 0 -3 245 c-1 134 0 250 3 257 6 17 30 16 44
-1z m-384 -291 l0 -180 -25 0 -25 0 -3 170 c-1 93 0 175 3 183 3 7 15 12 27
10 23 -3 23 -4 23 -183z m523 9 c2 -143 0 -173 -13 -184 -8 -7 -22 -10 -30 -6
-13 4 -15 33 -15 179 0 96 3 177 7 181 4 4 16 6 28 4 19 -3 20 -11 23 -174z
m-878 -346 c0 -5 16 -50 36 -101 54 -136 134 -374 134 -397 0 -13 -10 -24 -26
-30 -52 -20 -58 -15 -85 73 l-25 82 -20 -32 c-23 -39 -27 -40 -86 -10 l-46 23
-18 -59 c-15 -48 -23 -61 -48 -71 -17 -7 -39 -11 -48 -8 -21 5 -19 17 23 142
15 47 39 128 53 180 48 183 68 234 96 241 24 6 60 -14 60 -33z m377 27 c12 -9
50 -55 84 -103 35 -48 73 -100 86 -115 13 -16 23 -41 23 -55 -1 -16 -33 -79
-79 -152 -84 -134 -111 -156 -150 -122 -32 28 -171 244 -171 265 0 26 164 297
180 297 3 0 15 -7 27 -15z m564 -10 c34 -25 43 -34 157 -164 34 -39 62 -67 62
-61 0 14 115 187 147 222 l25 26 39 -20 c24 -12 36 -24 32 -31 -4 -7 -30 -43
-58 -82 -29 -38 -64 -91 -79 -117 l-27 -47 84 -104 c124 -153 132 -177 59
-177 -36 0 -41 4 -107 91 -39 50 -87 112 -108 136 -24 29 -36 51 -32 61 9 23
1 14 -58 -69 -149 -212 -152 -215 -225 -221 l-34 -3 -1 279 -2 279 35 13 c49
17 52 17 91 -11z m-228 -13 l27 -28 -38 -37 c-33 -32 -43 -36 -70 -31 -57 11
-59 28 -8 78 25 26 49 46 54 46 4 0 20 -13 35 -28z m-44 -184 c49 -26 54 -49
49 -224 l-3 -119 -42 -3 c-38 -3 -43 -1 -49 22 -3 14 -4 49 -2 78 3 29 1 95
-5 146 -8 83 -6 122 7 122 2 0 22 -10 45 -22z m699 -43 c12 -19 22 -42 22 -52
0 -20 -38 -63 -56 -63 -14 0 -74 81 -74 99 0 12 58 51 75 51 6 0 20 -16 33
-35z"/>
<path d="M341 619 c-12 -44 -25 -87 -28 -96 -5 -12 1 -10 24 6 26 19 34 21 53
11 12 -6 24 -9 27 -6 6 6 -37 155 -47 161 -4 2 -17 -32 -29 -76z"/>
<path d="M751 728 c-8 -13 -28 -44 -44 -70 l-29 -47 53 -80 53 -80 43 67 c23
37 43 74 43 82 0 15 -89 150 -99 150 -4 0 -13 -10 -20 -22z"/>
<path d="M1310 674 c0 -61 3 -132 6 -158 l7 -46 58 78 c32 42 59 82 59 88 0 5
-29 41 -65 80 l-65 69 0 -111z"/>
</g>
</svg>
